<?xml version="1.0" encoding="UTF-8" standalone="no"?>
<svg
   xmlns:dc="http://purl.org/dc/elements/1.1/"
   xmlns:cc="http://creativecommons.org/ns#"
   xmlns:rdf="http://www.w3.org/1999/02/22-rdf-syntax-ns#"
   xmlns:svg="http://www.w3.org/2000/svg"
   xmlns="http://www.w3.org/2000/svg"
   xmlns:sodipodi="http://sodipodi.sourceforge.net/DTD/sodipodi-0.dtd"
   xmlns:inkscape="http://www.inkscape.org/namespaces/inkscape"
   height="1024"
   width="1024"
   id="svg4568"
   version="1.1"
   inkscape:version="0.91 r13725"
   sodipodi:docname="twitter.svg">
  <metadata
     id="metadata4576">
    <rdf:RDF>
      <cc:Work
         rdf:about="">
        <dc:format>image/svg+xml</dc:format>
        <dc:type
           rdf:resource="http://purl.org/dc/dcmitype/StillImage" />
        <dc:title></dc:title>
      </cc:Work>
    </rdf:RDF>
  </metadata>
  <defs
     id="defs4574" />
  <sodipodi:namedview
     pagecolor="#ffffff"
     bordercolor="#666666"
     borderopacity="1"
     objecttolerance="10"
     gridtolerance="10"
     guidetolerance="10"
     inkscape:pageopacity="0"
     inkscape:pageshadow="2"
     inkscape:window-width="1311"
     inkscape:window-height="679"
     id="namedview4572"
     showgrid="false"
     inkscape:zoom="0.23046875"
     inkscape:cx="2460.7104"
     inkscape:cy="478.7855"
     inkscape:window-x="0"
     inkscape:window-y="0"
     inkscape:window-maximized="0"
     inkscape:current-layer="svg4568" />
  <path
     transform="matrix(0.83330717,0,0,0.83330717,-10.111957,99.361351)"
     inkscape:connector-curvature="0"
     id="path3369"
     d="M 349,1016.905 C 249.97024,1009.9355 158.11263,984.73016 70.5,940.48578 C 49.366838,929.81354 18.321845,912.5078 15.5,909.82655 C 14.867905,909.22595 19.650666,909.17505 28.5,909.68819 C 49.158695,910.88611 94.524604,910.57161 110,909.12318 C 176.87921,902.86358 235.89593,886.3608 294.5,857.53166 C 324.06701,842.98674 351.32582,826.36175 375.30785,808.24745 C 388.48675,798.29304 388.32235,797.83867 370.98919,796.31154 C 354.19887,794.83223 345.46252,793.51732 331.74616,790.40504 C 257.82641,773.63243 194.09453,723.07954 160.54462,654.60593 C 153.46785,640.16261 147.46125,625.20542 148.37202,624.29465 C 148.60785,624.05881 152.28606,624.35061 156.54581,624.94309 C 187.98037,629.31523 224.76292,627.54283 253.5,620.27126 C 259.17472,618.83534 260.5,618.12998 260.5,616.54558 C 260.5,614.88117 258.63381,614.11188 247.9236,611.36124 C 146.66805,585.35634 71.296473,499.65998 58.535561,396.02986 C 57.168342,384.92681 56.4227,366 57.352503,366 C 57.546379,366 62.383879,368.19772 68.102503,370.88382 C 96.293628,384.12552 126.02339,392.18017 157.25409,395.03756 C 163.71883,395.62904 169.45633,395.836 170.00409,395.49747 C 172.10689,394.19787 170.84502,391.16321 167.19834,388.74995 C 151.59043,378.42112 128.92222,357.17455 114.76994,339.60958 C 85.125804,302.81704 65.887817,256.7468 60.384222,209.36918 C 58.204142,190.602 58.925941,156.64953 61.870738,139.44537 C 64.360494,124.89966 68.730272,107.6951 73.032398,95.5 C 76.700123,85.103219 85.425986,65.438018 89.109082,59.268488 L 91.635216,55.036975 L 99.897181,64.768488 C 126.73807,96.38354 160.53431,129.51544 193.5,156.53136 C 309.97463,251.98417 453.52399,309.34465 602.94696,320.14107 C 615.1373,321.02187 620.33295,321.06705 621.10106,320.29894 C 621.86917,319.53083 621.71734,316.96848 620.57054,311.34584 C 616.2202,290.01665 614.62337,255.05602 617.01492,233.5 C 626.17868,150.9032 674.68193,78.158265 747.5,37.799151 C 789.18511,14.69535 839.36793,3.5833549 886.73409,6.9685086 C 948.54725,11.386157 1002.4821,35.346405 1047.8963,78.563964 L 1057.0255,87.251543 L 1061.2627,86.585388 C 1080.5001,83.561013 1130.6436,68.160425 1156,57.488712 C 1171.2979,51.050319 1195.485,39.404442 1207.75,32.571592 C 1212.2875,30.04374 1216,28.222975 1216,28.525448 C 1216,30.518602 1208.008,49.093801 1202.4346,60.054367 C 1182.7951,98.677599 1154.2716,130.83049 1117.1937,156.14161 C 1101.0109,167.18877 1103.1765,168.28366 1131.6951,163.47328 C 1168.4775,157.26902 1208.5822,145.99304 1239.8875,133.05352 C 1243.9507,131.37408 1247.454,130 1247.6727,130 C 1248.5485,130 1245.5696,134.45534 1237.174,145.70227 C 1209.3665,182.95404 1172.0544,220.53891 1134.7318,248.89336 L 1125,256.28672 L 1125,287.56381 C 1125,321.08819 1124.0864,338.9893 1120.9202,367.5 C 1099.4315,560.99982 999.37692,745.27243 851.17129,864.30216 C 736.6017,956.31748 602.42799,1006.939 446.51707,1016.9715 C 428.19678,1018.1504 366.09368,1018.1081 349,1016.905 Z"
     style="fill:#ffffff" />
  <path
     style="fill:#000000"
     d=""
     id="path3365"
     inkscape:connector-curvature="0"
     transform="translate(3570.6356,-10.17533)" />
</svg>
